# xmcd CD database file
#
# Track frame offsets:
#	150
#	27881
#	52650
#	80663
#	113088
#	159638
#	178134
#	208479
#	227449
#	254196
#
# Disc length: 3764 seconds
#
# Revision: 0
# Processed by: cddbd v1.5.2PL0 Copyright (c) Steve Scherf et al.
# Submitted via: CDex 1.51
#
DISCID=860eb20a
DTITLE=Olivier Le Goas - Gravitations
DYEAR=2005
DGENRE=Jazz
TTITLE0=Gagliarda
TTITLE1=Radio-Chaise
TTITLE2=Dichterliebe
TTITLE3=Il Est Ne Le Divin Enfant
TTITLE4=Padouana
TTITLE5=Interspace
TTITLE6=Fragment
TTITLE7=Cadre Gravitationnel
TTITLE8=Gigue
TTITLE9=Differents Ciels
EXTD=YEAR: 2005
EXTT0=
EXTT1=
EXTT2=
EXTT3=
EXTT4=
EXTT5=
EXTT6=
EXTT7=
EXTT8=
EXTT9=
PLAYORDER=
